<?xml version="1.0" standalone="no"?>
<!DOCTYPE svg PUBLIC "-//W3C//DTD SVG 20010904//EN"
 "http://www.w3.org/TR/2001/REC-SVG-20010904/DTD/svg10.dtd">
<svg version="1.0" xmlns="http://www.w3.org/2000/svg"
 width="96.000000pt" height="96.000000pt" viewBox="0 0 96.000000 96.000000"
 preserveAspectRatio="xMidYMid meet">
<metadata>
Created by potrace 1.14, written by Peter Selinger 2001-2017
</metadata>
<g transform="translate(0.000000,96.000000) scale(0.100000,-0.100000)"
fill="#000000" stroke="none">
<path d="M133 889 c-53 -26 -73 -57 -80 -125 l-6 -54 432 0 431 0 0 43 c0 59
-29 107 -80 134 -42 22 -50 23 -349 23 -289 0 -308 -1 -348 -21z m396 -68 c19
-12 4 -51 -19 -51 -24 0 -33 15 -25 40 7 21 22 25 44 11z m119 -18 c2 -15 -3
-23 -18 -28 -28 -9 -44 7 -35 35 9 28 49 24 53 -7z m107 6 c7 -21 -7 -39 -32
-39 -18 0 -27 41 -12 51 23 14 37 10 44 -12z"/>
<path d="M50 407 c0 -278 4 -294 80 -334 42 -22 50 -23 347 -23 449 0 431 -15
433 358 l1 242 -431 0 -430 0 0 -243z m205 -27 c0 -95 -2 -105 -19 -108 -27
-6 -36 15 -36 91 0 52 -3 67 -14 67 -20 0 -29 16 -21 41 6 17 14 20 48 17 l42
-3 0 -105z m195 88 c30 -32 29 -142 -2 -175 -30 -32 -87 -31 -117 1 -21 22
-23 33 -19 95 3 56 8 74 23 85 31 23 90 20 115 -6z m138 -85 c2 -94 1 -102
-18 -108 -33 -11 -40 3 -40 81 0 58 -3 74 -14 74 -20 0 -29 16 -21 41 6 17 14
20 48 17 l42 -3 3 -102z m191 81 c16 -21 21 -41 21 -90 0 -56 -3 -65 -26 -83
-35 -27 -81 -27 -111 1 -20 18 -23 31 -23 89 0 61 3 70 26 88 38 30 87 28 113
-5z"/>
<path d="M370 380 c0 -43 3 -50 20 -50 17 0 20 7 20 50 0 43 -3 50 -20 50 -17
0 -20 -7 -20 -50z"/>
<path d="M700 380 c0 -43 3 -50 20 -50 17 0 20 7 20 50 0 43 -3 50 -20 50 -17
0 -20 -7 -20 -50z"/>
</g>
</svg>
